<svg fill="none" height="87" viewBox="0 0 89 87" width="89" xmlns="http://www.w3.org/2000/svg" xmlns:xlink="http://www.w3.org/1999/xlink"><linearGradient id="a"><stop offset="0" stop-color="#8b00ff"/><stop offset="1" stop-color="#f69bd7"/></linearGradient><linearGradient id="b" gradientUnits="userSpaceOnUse" x1="9.66939" x2="10.2793" xlink:href="#a" y1="82.2033" y2="4.75624"/><linearGradient id="c" gradientUnits="userSpaceOnUse" x1="4.31797" x2="81.765" xlink:href="#a" y1="9.57001" y2="10.1799"/><linearGradient id="d" gradientUnits="userSpaceOnUse" x1="77.5919" x2="76.982" xlink:href="#a" y1="4.31797" y2="81.765"/><linearGradient id="e" gradientUnits="userSpaceOnUse" x1="59.8173" x2="28.3086" xlink:href="#a" y1="50.2779" y2="49.9476"/><clipPath id="f"><path d="m0 0h88.0116v87h-88.0116z"/></clipPath><g clip-path="url(#f)"><path d="m9.79076.11894c-5.3524-.0656857-9.6913764 4.22037-9.6913766 9.57318l-.0000029 66.89918c-.0000003 5.3527 4.3389795 9.7453 9.6913795 9.8109 5.35244.0658 9.69134-4.2203 9.69134-9.5731v-66.89911c0-5.3528-4.3389-9.745364-9.69134-9.81105z" fill="url(#b)"/><path d="m86.4023 9.69139c.0657-5.3524-4.2204-9.69138368-9.5732-9.69138415l-66.89911-.00000585c-5.3528-.00000047-9.745364 4.33898-9.81105 9.69138-.0656859 5.35242 4.22037 9.69142 9.57318 9.69142h66.89918c5.3527 0 9.7453-4.339 9.811-9.69141z" fill="url(#c)"/><path d="m77.4705 86.4023c5.3524.0657 9.6914-4.2204 9.6914-9.5732v-66.89911c0-5.3528-4.339-9.745365-9.6914-9.81105-5.3525-.0656857-9.6914 4.22037-9.6914 9.57318v66.89908c0 5.3529 4.3389 9.7454 9.6914 9.8111z" fill="url(#d)"/><path d="m26.4213 50.1565c-.0658 5.3524 4.2203 9.6914 9.5731 9.6914h15.721c5.3529 0 9.7454-4.339 9.8111-9.6914.0657-5.3523-4.2203-9.6913-9.5731-9.6913h-15.7211c-5.3528 0-9.7454 4.339-9.811 9.6913z" fill="url(#e)"/></g></svg>