<svg width="17" height="17" viewBox="0 0 17 17" fill="none" xmlns="http://www.w3.org/2000/svg">
<path d="M5.45419 11.5458C5.58405 11.6757 5.74933 11.7406 5.95002 11.7406C6.15071 11.7406 6.31599 11.6757 6.44585 11.5458L8.50002 9.49163L10.5719 11.5635C10.7018 11.6934 10.8642 11.7552 11.0592 11.7491C11.2538 11.7434 11.416 11.6757 11.5459 11.5458C11.6757 11.4159 11.7406 11.2507 11.7406 11.05C11.7406 10.8493 11.6757 10.684 11.5459 10.5541L9.49169 8.49996L11.5636 6.42808C11.6934 6.29822 11.7553 6.13578 11.7491 5.94075C11.7435 5.7462 11.6757 5.58399 11.5459 5.45413C11.416 5.32427 11.2507 5.25933 11.05 5.25933C10.8493 5.25933 10.684 5.32427 10.5542 5.45413L8.50002 7.50829L6.42815 5.43642C6.29828 5.30656 6.13608 5.24446 5.94152 5.25013C5.74649 5.25627 5.58405 5.32427 5.45419 5.45413C5.32433 5.58399 5.2594 5.74926 5.2594 5.94996C5.2594 6.15065 5.32433 6.31593 5.45419 6.44579L7.50835 8.49996L5.43648 10.5718C5.30662 10.7017 5.24476 10.8639 5.2509 11.0585C5.25656 11.2535 5.32433 11.4159 5.45419 11.5458ZM8.50002 15.5833C7.52016 15.5833 6.59933 15.3972 5.73752 15.0251C4.87572 14.6535 4.12606 14.1489 3.48856 13.5114C2.85106 12.8739 2.34649 12.1243 1.97485 11.2625C1.60274 10.4007 1.41669 9.47982 1.41669 8.49996C1.41669 7.5201 1.60274 6.59927 1.97485 5.73746C2.34649 4.87565 2.85106 4.126 3.48856 3.4885C4.12606 2.851 4.87572 2.3462 5.73752 1.97408C6.59933 1.60245 7.52016 1.41663 8.50002 1.41663C9.47988 1.41663 10.4007 1.60245 11.2625 1.97408C12.1243 2.3462 12.874 2.851 13.5115 3.4885C14.149 4.126 14.6535 4.87565 15.0252 5.73746C15.3973 6.59927 15.5834 7.5201 15.5834 8.49996C15.5834 9.47982 15.3973 10.4007 15.0252 11.2625C14.6535 12.1243 14.149 12.8739 13.5115 13.5114C12.874 14.1489 12.1243 14.6535 11.2625 15.0251C10.4007 15.3972 9.47988 15.5833 8.50002 15.5833ZM8.50002 14.1666C10.0702 14.1666 11.4073 13.6148 12.5113 12.5113C13.6149 11.4072 14.1667 10.0701 14.1667 8.49996C14.1667 6.92982 13.6149 5.59272 12.5113 4.48867C11.4073 3.38508 10.0702 2.83329 8.50002 2.83329C6.92988 2.83329 5.59302 3.38508 4.48944 4.48867C3.38538 5.59272 2.83335 6.92982 2.83335 8.49996C2.83335 10.0701 3.38538 11.4072 4.48944 12.5113C5.59302 13.6148 6.92988 14.1666 8.50002 14.1666Z" fill="#505966"/>
</svg>
