<svg width="24" height="24" viewBox="0 0 24 24" fill="none" xmlns="http://www.w3.org/2000/svg">
<path d="M20.3333 0H3.66667C1.64533 0 0 1.64533 0 3.66667V20.3333C0 22.3547 1.64533 24 3.66667 24H20.3333C22.3547 24 24 22.3547 24 20.3333V3.66667C24 1.64533 22.3547 0 20.3333 0ZM19.7073 8.374L10.374 17.7073C10.1787 17.9027 9.92267 18 9.66667 18C9.41067 18 9.15466 17.9027 8.95933 17.7073L4.95933 13.7073C4.56867 13.3167 4.56867 12.684 4.95933 12.2933C5.35 11.9027 5.98267 11.9027 6.37333 12.2933L9.666 15.586L18.292 6.96C18.6827 6.56933 19.3153 6.56933 19.706 6.96C20.0967 7.35067 20.0973 7.98333 19.7073 8.374Z" fill="#8B00FF"/>
</svg>
