<svg width="24" height="21" viewBox="0 0 24 21" fill="none" xmlns="http://www.w3.org/2000/svg">
<path d="M0 0V20.0303H24V0H0ZM1.8413 1.87208H22.1587V18.1582H1.8413V1.87208V1.87208ZM6.0293 4.22314C5.4563 4.22314 4.97418 4.41838 4.5835 4.80908C4.19282 5.19978 3.99756 5.68188 3.99756 6.25488C3.99756 6.80186 4.19282 7.27042 4.5835 7.66112C4.97418 8.05182 5.4563 8.24706 6.0293 8.24706C6.57626 8.24706 7.04486 8.0518 7.43556 7.66112C7.82626 7.27044 8.0215 6.80184 8.0215 6.25488C8.0215 5.68188 7.82624 5.19978 7.43556 4.80908C7.04488 4.41838 6.57626 4.22314 6.0293 4.22314ZM14.6631 5.21338L10.0532 12.2065L7.60546 10.1748L3.99756 14.8623V16.2304H20.0024V10.7344L14.6631 5.21338Z" fill="#8B00FF"/>
</svg>
