<svg width="24" height="24" viewBox="0 0 24 24" fill="none" xmlns="http://www.w3.org/2000/svg">
<path d="M18.5161 3.02325C17.8891 3.02325 17.2793 3.27525 16.8046 3.75L16.7348 3.8205L16.2661 3.375L3.89106 15.75L3.84381 15.9848L3.02331 20.1098L2.78931 21.2108L3.89106 20.9768L8.01606 20.1563L8.25006 20.109L20.6251 7.734L20.1796 7.28925L20.2268 7.242L20.2501 7.1955C20.7059 6.73806 20.9619 6.11857 20.9619 5.47275C20.9619 4.82693 20.7059 4.20745 20.2501 3.75C19.7905 3.28809 19.1669 3.02681 18.5153 3.02325H18.5161ZM18.5161 4.5C18.7501 4.5 18.9961 4.605 19.1956 4.8045C19.5968 5.20575 19.5968 5.739 19.1956 6.141L19.1251 6.21075L17.7893 4.875L17.8591 4.8045C18.0586 4.60575 18.2813 4.5 18.5153 4.5H18.5161ZM16.2886 5.48475L18.5161 7.71075L17.4376 8.8125L15.1876 6.5625L16.2886 5.48475ZM14.1563 7.641L16.3598 9.84375L8.53131 17.6955L8.22681 16.3358L8.13306 15.867L7.66431 15.7733L6.30456 15.4688L14.1563 7.641ZM5.22681 16.7573L6.86706 17.1323L7.24206 18.7725L5.71881 19.0778L4.92156 18.2805L5.22681 16.7573Z" fill="black"/>
</svg>
