<svg width="25" height="24" viewBox="0 0 25 24" fill="none" xmlns="http://www.w3.org/2000/svg">
<path d="M12.5 2C9.74746 2 7.5 4.24746 7.5 7C7.5 9.75254 9.74746 12 12.5 12C15.2525 12 17.5 9.75254 17.5 7C17.5 4.24746 15.2525 2 12.5 2ZM12.5 3.5C14.4419 3.5 16 5.05812 16 7C16 8.94188 14.4419 10.5 12.5 10.5C10.5581 10.5 9 8.94188 9 7C9 5.05812 10.5581 3.5 12.5 3.5ZM6.48926 14C5.39935 14 4.5 14.8994 4.5 15.9893V16.75C4.5 18.5521 5.63963 19.9461 7.15332 20.7812C8.66701 21.6164 10.5841 22 12.5 22C14.4159 22 16.333 21.6164 17.8467 20.7812C19.1373 20.0692 20.1087 18.9313 20.3809 17.5H20.501V15.9893C20.501 14.8994 19.6006 14 18.5107 14H6.48926ZM6.48926 15.5H18.5107C18.7898 15.5 19.001 15.7102 19.001 15.9893V16H19V16.75C19 17.9479 18.3271 18.8039 17.1221 19.4688C15.917 20.1336 14.2091 20.5 12.5 20.5C10.7909 20.5 9.08299 20.1336 7.87793 19.4688C6.67287 18.8039 6 17.9479 6 16.75V15.9893C6 15.7102 6.21016 15.5 6.48926 15.5Z" fill="#D4D4D4"/>
</svg>
