<svg width="19" height="19" viewBox="0 0 19 19" fill="none" xmlns="http://www.w3.org/2000/svg">
<path d="M16.5433 2.4567C16.187 2.10051 15.7038 1.90041 15.2 1.90041C14.6962 1.90041 14.213 2.10051 13.8567 2.4567L6.65002 9.6634V12.35H9.33662L16.5433 5.1433C16.8995 4.787 17.0996 4.30381 17.0996 3.8C17.0996 3.29619 16.8995 2.813 16.5433 2.4567Z" fill="#505966"/>
<path fill-rule="evenodd" clip-rule="evenodd" d="M1.90002 5.7C1.90002 5.19609 2.1002 4.71282 2.45652 4.3565C2.81284 4.00018 3.29611 3.8 3.80002 3.8H7.60002C7.85198 3.8 8.09362 3.90009 8.27178 4.07825C8.44993 4.25641 8.55002 4.49805 8.55002 4.75C8.55002 5.00196 8.44993 5.24359 8.27178 5.42175C8.09362 5.59991 7.85198 5.7 7.60002 5.7H3.80002V15.2H13.3V11.4C13.3 11.148 13.4001 10.9064 13.5783 10.7283C13.7564 10.5501 13.9981 10.45 14.25 10.45C14.502 10.45 14.7436 10.5501 14.9218 10.7283C15.0999 10.9064 15.2 11.148 15.2 11.4V15.2C15.2 15.7039 14.9998 16.1872 14.6435 16.5435C14.2872 16.8998 13.8039 17.1 13.3 17.1H3.80002C3.29611 17.1 2.81284 16.8998 2.45652 16.5435C2.1002 16.1872 1.90002 15.7039 1.90002 15.2V5.7Z" fill="#505966"/>
</svg>
